HIERARCHY
ROOT Hips
{
	OFFSET 0.000000 0.000000 0.000000
	CHANNELS 6 Xposition Yposition Zposition Xrotation Yrotation Zrotation
	JOINT LeftUpLeg_virtual
	{
		OFFSET 0.000000 0.000000 0.000000
		CHANNELS 3 Xrotation Yrotation Zrotation
		JOINT LeftUpLeg
		{
			OFFSET 15.427100 -6.655098 0.678600
			CHANNELS 3 Xrotation Yrotation Zrotation
			JOINT LeftLeg
			{
				OFFSET 4.081073 -39.591068 13.024000
				CHANNELS 3 Xrotation Yrotation Zrotation
				JOINT LeftFoot
				{
					OFFSET -4.081074 -37.707932 -15.979700
					CHANNELS 3 Xrotation Yrotation Zrotation
					JOINT LeftToeBase
					{
						OFFSET 5.346399 -15.068900 20.645000
						CHANNELS 3 Xrotation Yrotation Zrotation
						JOINT LeftToe_End
						{
							OFFSET 2.754700 0.931300 11.300900
							CHANNELS 3 Xrotation Yrotation Zrotation
							End Site
							{
								OFFSET 0 0 0
							}
						}
					}
				}
			}
		}
	}
	JOINT RightUpLeg_virtual
	{
		OFFSET 0.000000 0.000000 0.000000
		CHANNELS 3 Xrotation Yrotation Zrotation
		JOINT RightUpLeg
		{
			OFFSET -15.569500 -6.655098 0.678600
			CHANNELS 3 Xrotation Yrotation Zrotation
			JOINT RightLeg
			{
				OFFSET -4.081825 -39.591045 13.023800
				CHANNELS 3 Xrotation Yrotation Zrotation
				JOINT RightFoot
				{
					OFFSET 4.081824 -37.707954 -15.979600
					CHANNELS 3 Xrotation Yrotation Zrotation
					JOINT RightToeBase
					{
						OFFSET -5.346400 -15.068900 20.645000
						CHANNELS 3 Xrotation Yrotation Zrotation
						JOINT RightToe_End
						{
							OFFSET -2.754700 0.931300 11.300900
							CHANNELS 3 Xrotation Yrotation Zrotation
							End Site
							{
								OFFSET 0 0 0
							}
						}
					}
				}
			}
		}
	}
	JOINT Spine_virtual
	{
		OFFSET 0.000000 0.000000 0.000000
		CHANNELS 3 Xrotation Yrotation Zrotation
		JOINT Spine
		{
			OFFSET -0.279200 12.230698 -2.892100
			CHANNELS 3 Xrotation Yrotation Zrotation
			JOINT Spine1
			{
				OFFSET -0.232667 10.192268 -1.242267
				CHANNELS 3 Xrotation Yrotation Zrotation
				JOINT Spine1_split
				{
					OFFSET -0.232667 10.192268 -1.242267
					CHANNELS 3 Xrotation Yrotation Zrotation
					JOINT Spine2
					{
						OFFSET -0.232667 10.192268 -1.242267
						CHANNELS 3 Xrotation Yrotation Zrotation
						JOINT Neck_virtual
						{
							OFFSET 0.000000 0.000000 0.000000
							CHANNELS 3 Xrotation Yrotation Zrotation
							JOINT Neck
							{
								OFFSET -0.418800 17.814194 8.416900
								CHANNELS 3 Xrotation Yrotation Zrotation
								JOINT Head
								{
									OFFSET 0.000000 7.031097 3.806800
									CHANNELS 3 Xrotation Yrotation Zrotation
									JOINT HeadTop_End
									{
										OFFSET 0.000000 24.646606 12.978600
										CHANNELS 3 Xrotation Yrotation Zrotation
										End Site
										{
											OFFSET 0 0 0
										}
									}
								}
							}
						}
						JOINT LeftShoulder_virtual
						{
							OFFSET 0.000000 0.000000 0.000000
							CHANNELS 3 Xrotation Yrotation Zrotation
							JOINT LeftShoulder
							{
								OFFSET 8.476499 7.247704 -3.868750
								CHANNELS 3 Xrotation Yrotation Zrotation
								JOINT LeftShoulder_split
								{
									OFFSET 8.476499 7.247704 -3.868750
									CHANNELS 3 Xrotation Yrotation Zrotation
									JOINT LeftArm
									{
										OFFSET 9.308998 -2.777710 0.208600
										CHANNELS 3 Xrotation Yrotation Zrotation
										JOINT LeftForeArm
										{
											OFFSET 29.972298 0.000000 0.000000
											CHANNELS 3 Xrotation Yrotation Zrotation
											JOINT LeftHand
											{
												OFFSET 26.026505 0.000000 0.000000
												CHANNELS 3 Xrotation Yrotation Zrotation
												End Site
												{
													OFFSET 0 0 0
												}
											}
										}
									}
								}
							}
						}
						JOINT RightShoulder_virtual
						{
							OFFSET 0.000000 0.000000 0.000000
							CHANNELS 3 Xrotation Yrotation Zrotation
							JOINT RightShoulder
							{
								OFFSET -7.570500 7.247704 -3.868750
								CHANNELS 3 Xrotation Yrotation Zrotation
								JOINT RightShoulder_split
								{
									OFFSET -7.570500 7.247704 -3.868750
									CHANNELS 3 Xrotation Yrotation Zrotation
									JOINT RightArm
									{
										OFFSET -9.308998 -2.777710 0.208500
										CHANNELS 3 Xrotation Yrotation Zrotation
										JOINT RightForeArm
										{
											OFFSET -29.972300 0.000000 0.000000
											CHANNELS 3 Xrotation Yrotation Zrotation
											JOINT RightHand
											{
												OFFSET -26.026505 0.000000 0.000000
												CHANNELS 3 Xrotation Yrotation Zrotation
												End Site
												{
													OFFSET 0 0 0
												}
											}
										}
									}
								}
							}
						}
					}
				}
			}
		}
	}
}
MOTION
Frames: 7
Frame Time: 0.03333333
0.623151 68.642761 -0.778934 0.000000 0.000000 0.000000 11.713401 6.236830 -1.390289 -49.726861 1.815120 4.094792 70.178507 7.166778 0.085266 -29.717221 7.811987 -7.037140 -3.287009 -0.373688 0.397918 0.000000 0.000000 0.000000 12.152377 5.167027 -1.212795 -45.596567 -11.291948 -6.631563 72.720806 -5.629049 -2.872307 -34.156120 -10.612201 5.689027 2.874321 0.891843 -0.253028 0.000000 0.000000 0.000000 12.022418 3.349665 -0.969917 9.249545 1.391406 1.804055 8.833613 1.914936 -0.454527 0.855074 -0.766984 0.401458 0.000000 0.000000 0.000000 9.072577 0.840813 0.140686 -10.455539 -1.305622 6.033693 -25.713215 1.561354 -7.515760 0.000000 0.000000 0.000000 9.185602 0.514514 0.011119 3.343155 -24.564278 3.853191 -2.580573 0.371962 -3.245643 -62.439834 -24.790959 -65.010806 177.564619 -72.312374 175.767665 0.000000 0.000000 0.000000 8.273966 0.580979 0.249641 0.013376 12.107693 10.609697 0.601466 6.702936 0.266713 -63.081025 31.328602 50.738958 -179.087437 70.254513 178.371647 0.000000 0.000000 0.000000 
0.622617 68.648499 -0.752060 0.000000 0.000000 0.000000 11.722456 6.233449 -1.400558 -49.733442 1.813397 4.107756 70.175092 7.176082 0.077369 -29.727575 7.815975 -7.033613 -3.272185 -0.372257 0.390390 0.000000 0.000000 0.000000 12.161268 5.161761 -1.222744 -45.582695 -11.289404 -6.615005 72.711831 -5.631503 -2.873590 -34.157417 -10.611369 5.694195 2.861196 0.892905 -0.254542 0.000000 0.000000 0.000000 12.031267 3.343390 -0.981292 9.245774 1.395316 1.795512 8.829626 1.917962 -0.462897 0.863245 -0.751360 0.380023 0.000000 0.000000 0.000000 9.069987 0.845164 0.131865 -10.439590 -1.320632 6.056899 -25.707265 1.552805 -7.516073 0.000000 0.000000 0.000000 9.182721 0.520461 0.009666 3.347843 -24.561787 3.861062 -2.548961 0.350880 -3.256748 -62.531242 -24.830932 -65.094360 177.591066 -72.202831 175.791748 0.000000 0.000000 0.000000 8.266845 0.582417 0.242771 0.009730 12.091250 10.622602 0.583069 6.744227 0.282893 -63.135892 31.317387 50.797162 -179.088257 70.122991 178.356935 0.000000 0.000000 0.000000 
0.628048 68.654640 -0.727833 0.000000 0.000000 0.000000 11.736773 6.223427 -1.419418 -49.744681 1.806392 4.131477 70.181341 7.182155 0.069151 -29.745744 7.819767 -7.031897 -3.249841 -0.370601 0.381074 0.000000 0.000000 0.000000 12.175136 5.154112 -1.242532 -45.568707 -11.299805 -6.595657 72.695056 -5.633432 -2.875809 -34.152110 -10.605814 5.704463 2.854035 0.894229 -0.258742 0.000000 0.000000 0.000000 12.043515 3.321262 -0.997503 9.250193 1.411065 1.782406 8.810301 1.936102 -0.472706 0.870294 -0.736708 0.366166 0.000000 0.000000 0.000000 9.052980 0.863763 0.118288 -10.427549 -1.346857 6.105910 -25.705910 1.522885 -7.507348 0.000000 0.000000 0.000000 9.159404 0.541485 0.006520 3.350897 -24.556058 3.869466 -2.531665 0.336438 -3.264656 -62.632507 -24.916831 -65.212331 177.581353 -72.090857 175.776257 0.000000 0.000000 0.000000 8.245716 0.598735 0.231880 0.004386 12.069865 10.661033 0.591924 6.760913 0.294243 -63.221139 31.266540 50.859002 -179.063299 69.971805 178.312457 0.000000 0.000000 0.000000 
0.640155 68.658226 -0.710979 0.000000 0.000000 0.000000 11.751568 6.209751 -1.439685 -49.757689 1.796023 4.155732 70.197085 7.182437 0.063460 -29.762450 7.820530 -7.033598 -3.234474 -0.369914 0.376246 0.000000 0.000000 0.000000 12.190208 5.144510 -1.264643 -45.562706 -11.317734 -6.582535 72.677680 -5.633583 -2.878467 -34.138552 -10.599094 5.720144 2.852557 0.895785 -0.264384 0.000000 0.000000 0.000000 12.055498 3.289187 -1.011717 9.261243 1.434468 1.766999 8.781183 1.964205 -0.481925 0.867804 -0.719125 0.361929 0.000000 0.000000 0.000000 9.025349 0.892482 0.103340 -10.426257 -1.377293 6.168091 -25.719233 1.480859 -7.494487 0.000000 0.000000 0.000000 9.123900 0.571081 0.000297 3.351892 -24.553500 3.874440 -2.534036 0.353333 -3.270692 -62.707495 -25.007915 -65.309798 177.543227 -72.041195 175.737243 0.000000 0.000000 0.000000 8.214968 0.625975 0.220173 -0.001696 12.046096 10.715908 0.616937 6.752022 0.304054 -63.304167 31.195987 50.892388 -179.031402 69.865930 178.261134 0.000000 0.000000 0.000000 
0.656311 68.659966 -0.699459 0.000000 0.000000 0.000000 11.762481 6.200012 -1.455155 -49.765260 1.790417 4.171248 70.212979 7.180545 0.059661 -29.775988 7.817700 -7.030677 -3.232628 -0.370839 0.378249 0.000000 0.000000 0.000000 12.201867 5.137995 -1.281382 -45.565572 -11.335505 -6.580161 72.665741 -5.631595 -2.882824 -34.117970 -10.596104 5.741257 2.849899 0.896945 -0.269403 0.000000 0.000000 0.000000 12.065422 3.261284 -1.019842 9.276876 1.457888 1.750662 8.748411 1.994252 -0.489872 0.865241 -0.700791 0.366733 0.000000 0.000000 0.000000 8.993325 0.922734 0.090439 -10.441893 -1.404958 6.226968 -25.751927 1.442982 -7.482235 0.000000 0.000000 0.000000 9.085495 0.600231 -0.008595 3.352073 -24.558288 3.875593 -2.547884 0.399207 -3.283204 -62.734891 -25.082505 -65.349577 177.498653 -72.075196 175.701890 0.000000 0.000000 0.000000 8.181413 0.656874 0.209993 -0.006847 12.024530 10.772141 0.647905 6.730518 0.302699 -63.368549 31.132026 50.889311 -179.008207 69.841519 178.223705 0.000000 0.000000 0.000000 
0.673932 68.661766 -0.693237 0.000000 0.000000 0.000000 11.769777 6.198022 -1.460541 -49.765769 1.796390 4.171952 70.219098 7.180739 0.056847 -29.784402 7.813853 -7.020888 -3.236487 -0.372344 0.382749 0.000000 0.000000 0.000000 12.209474 5.137120 -1.288218 -45.575510 -11.346154 -6.588023 72.660454 -5.628559 -2.890594 -34.094614 -10.600343 5.764498 2.843862 0.897513 -0.272452 0.000000 0.000000 0.000000 12.071862 3.246075 -1.017686 9.293472 1.473981 1.736634 8.717913 2.017710 -0.496555 0.861455 -0.697686 0.371256 0.000000 0.000000 0.000000 8.965449 0.946347 0.081423 -10.472744 -1.423455 6.270266 -25.796667 1.425389 -7.471932 0.000000 0.000000 0.000000 9.052999 0.620840 -0.020633 3.351624 -24.566457 3.872885 -2.569328 0.449955 -3.304303 -62.720261 -25.114216 -65.326374 177.463573 -72.171440 175.685388 0.000000 0.000000 0.000000 8.153315 0.682909 0.201917 -0.008883 12.006678 10.814967 0.674042 6.707227 0.289561 -63.412248 31.104285 50.868384 -179.004942 69.888545 178.214006 0.000000 0.000000 0.000000 
0.689712 68.666374 -0.690624 0.000000 0.000000 0.000000 11.773915 6.200850 -1.455900 -49.758608 1.815156 4.159371 70.206859 7.183272 0.058332 -29.781592 7.810453 -7.010735 -3.237594 -0.373371 0.386494 0.000000 0.000000 0.000000 12.212877 5.140442 -1.283950 -45.588303 -11.346573 -6.603278 72.656622 -5.626128 -2.901726 -34.072706 -10.610584 5.785340 2.842337 0.897545 -0.272016 0.000000 0.000000 0.000000 12.075107 3.248403 -1.008961 9.308040 1.478972 1.726248 8.694383 2.029398 -0.502329 0.858586 -0.705998 0.372190 0.000000 0.000000 0.000000 8.948438 0.958443 0.076376 -10.513450 -1.430249 6.291684 -25.841481 1.431892 -7.463469 0.000000 0.000000 0.000000 9.032641 0.630122 -0.032002 3.350003 -24.569912 3.867969 -2.592926 0.490984 -3.334765 -62.689867 -25.105397 -65.274800 177.457645 -72.275122 175.704376 0.000000 0.000000 0.000000 8.132647 0.696762 0.195582 -0.006958 11.990710 10.839269 0.688144 6.690369 0.285099 -63.444644 31.124202 50.856086 -179.023411 69.959824 178.233117 0.000000 0.000000 0.000000 
